<svg width="44" height="48" viewBox="0 0 44 48" fill="none" xmlns="http://www.w3.org/2000/svg">
<path d="M38.0001 22.6667V10.6667L32.3734 13.4933C32.5601 14.2933 32.6667 15.12 32.6667 16C32.6667 21.8933 27.8934 26.6667 22.0001 26.6667C16.1067 26.6667 11.3334 21.8933 11.3334 16C11.3334 15.12 11.4401 14.2933 11.6267 13.4933L3.33341 9.33333L22.0001 0L40.6667 9.33333V22.6667H38.0001ZM22.0001 18.6667L16.6667 16C16.6667 18.9333 19.0667 21.3333 22.0001 21.3333C24.9334 21.3333 27.3334 18.9333 27.3334 16L22.0001 18.6667ZM29.3334 9.12L22.4267 5.6L15.2534 9.25333L22.1867 12.7733L29.3334 9.12ZM22.0001 29.3333C29.1201 29.3333 43.3334 32.88 43.3334 40V48H0.666748V40C0.666748 32.88 14.8801 29.3333 22.0001 29.3333ZM22.0001 34.4C14.0001 34.4 5.73341 38.2933 5.73341 40V42.9333H38.2667V40C38.2667 38.2933 29.9201 34.4 22.0001 34.4Z" fill="#FF28DC"/>
</svg>
