<svg width="55" height="44" viewBox="0 0 55 44" fill="none" xmlns="http://www.w3.org/2000/svg">
<path d="M20.8333 0.666504C9.79325 0.666504 0.833252 7.83984 0.833252 16.6665C0.833252 21.7065 3.71325 26.1598 8.24659 29.0932L6.16659 35.3332L12.8333 31.3332C15.2066 32.1598 17.8199 32.6665 20.5933 32.6665C19.8999 30.9865 19.4999 29.1998 19.4999 27.3332C19.4999 18.5065 27.8466 11.3332 38.1666 11.3332C38.6733 11.3332 39.1799 11.3332 39.6599 11.4132C36.9399 5.17317 29.5799 0.666504 20.8333 0.666504ZM12.8333 7.33317C13.5405 7.33317 14.2188 7.61412 14.7189 8.11422C15.219 8.61432 15.4999 9.29259 15.4999 9.99984C15.4999 10.7071 15.219 11.3854 14.7189 11.8855C14.2188 12.3856 13.5405 12.6665 12.8333 12.6665C12.126 12.6665 11.4477 12.3856 10.9476 11.8855C10.4475 11.3854 10.1666 10.7071 10.1666 9.99984C10.1666 9.29259 10.4475 8.61432 10.9476 8.11422C11.4477 7.61412 12.126 7.33317 12.8333 7.33317ZM26.1666 7.33317C26.8738 7.33317 27.5521 7.61412 28.0522 8.11422C28.5523 8.61432 28.8333 9.29259 28.8333 9.99984C28.8333 10.7071 28.5523 11.3854 28.0522 11.8855C27.5521 12.3856 26.8738 12.6665 26.1666 12.6665C25.4593 12.6665 24.7811 12.3856 24.281 11.8855C23.7809 11.3854 23.4999 10.7071 23.4999 9.99984C23.4999 9.29259 23.7809 8.61432 24.281 8.11422C24.7811 7.61412 25.4593 7.33317 26.1666 7.33317ZM38.1666 13.9998C29.3399 13.9998 22.1666 19.9732 22.1666 27.3332C22.1666 34.6932 29.3399 40.6665 38.1666 40.6665C39.9533 40.6665 41.6599 40.4532 43.2599 39.9998L48.8333 43.3332L47.1799 38.3465C51.3666 35.9198 54.1666 31.8932 54.1666 27.3332C54.1666 19.9732 46.9933 13.9998 38.1666 13.9998ZM32.8333 20.6665C33.5405 20.6665 34.2188 20.9475 34.7189 21.4476C35.219 21.9477 35.4999 22.6259 35.4999 23.3332C35.4999 24.0404 35.219 24.7187 34.7189 25.2188C34.2188 25.7189 33.5405 25.9998 32.8333 25.9998C32.126 25.9998 31.4477 25.7189 30.9476 25.2188C30.4475 24.7187 30.1666 24.0404 30.1666 23.3332C30.1666 22.6259 30.4475 21.9477 30.9476 21.4476C31.4477 20.9475 32.126 20.6665 32.8333 20.6665ZM43.4999 20.6665C44.2072 20.6665 44.8854 20.9475 45.3855 21.4476C45.8856 21.9477 46.1666 22.6259 46.1666 23.3332C46.1666 24.0404 45.8856 24.7187 45.3855 25.2188C44.8854 25.7189 44.2072 25.9998 43.4999 25.9998C42.7927 25.9998 42.1144 25.7189 41.6143 25.2188C41.1142 24.7187 40.8333 24.0404 40.8333 23.3332C40.8333 22.6259 41.1142 21.9477 41.6143 21.4476C42.1144 20.9475 42.7927 20.6665 43.4999 20.6665Z" fill="white"/>
</svg>
