<svg width="55" height="53" viewBox="0 0 55 53" fill="none" xmlns="http://www.w3.org/2000/svg">
<path d="M27.5 0.333496C23.9981 0.333496 20.5305 1.02325 17.2951 2.36338C14.0598 3.7035 11.1201 5.66775 8.64386 8.14398C3.64289 13.145 0.833374 19.9277 0.833374 27.0002C0.833374 38.7868 8.48671 48.7868 19.0734 52.3335C20.4067 52.5468 20.8334 51.7202 20.8334 51.0002C20.8334 50.3868 20.8334 48.7068 20.8334 46.4935C13.4467 48.0935 11.8734 42.9202 11.8734 42.9202C10.6467 39.8268 8.91337 39.0002 8.91337 39.0002C6.48671 37.3468 9.10004 37.4002 9.10004 37.4002C11.7667 37.5868 13.18 40.1468 13.18 40.1468C15.5 44.2002 19.42 43.0002 20.94 42.3602C21.18 40.6268 21.8734 39.4535 22.62 38.7868C16.7 38.1202 10.4867 35.8268 10.4867 25.6668C10.4867 22.7068 11.5 20.3335 13.2334 18.4402C12.9667 17.7735 12.0334 15.0002 13.5 11.4002C13.5 11.4002 15.74 10.6802 20.8334 14.1202C22.94 13.5335 25.2334 13.2402 27.5 13.2402C29.7667 13.2402 32.06 13.5335 34.1667 14.1202C39.26 10.6802 41.5 11.4002 41.5 11.4002C42.9667 15.0002 42.0334 17.7735 41.7667 18.4402C43.5 20.3335 44.5134 22.7068 44.5134 25.6668C44.5134 35.8535 38.2734 38.0935 32.3267 38.7602C33.2867 39.5868 34.1667 41.2135 34.1667 43.6935C34.1667 47.2668 34.1667 50.1468 34.1667 51.0002C34.1667 51.7202 34.5934 52.5735 35.9534 52.3335C46.54 48.7602 54.1667 38.7868 54.1667 27.0002C54.1667 23.4982 53.477 20.0306 52.1368 16.7953C50.7967 13.5599 48.8324 10.6202 46.3562 8.14398C43.88 5.66775 40.9403 3.7035 37.7049 2.36338C34.4696 1.02325 31.002 0.333496 27.5 0.333496Z" fill="white"/>
</svg>
